<svg xmlns="http://www.w3.org/2000/svg" viewBox="0 0 32 32" width="32" height="32">
  <defs>
    <linearGradient id="grad1" x1="0%" y1="0%" x2="100%" y2="100%">
      <stop offset="0%" style="stop-color:#3B82F6;stop-opacity:1" />
      <stop offset="100%" style="stop-color:#1E40AF;stop-opacity:1" />
    </linearGradient>
    <linearGradient id="grad2" x1="0%" y1="0%" x2="100%" y2="100%">
      <stop offset="0%" style="stop-color:#FFFFFF;stop-opacity:1" />
      <stop offset="100%" style="stop-color:#F3F4F6;stop-opacity:1" />
    </linearGradient>
  </defs>
  
  <!-- Background circle with gradient -->
  <circle cx="16" cy="16" r="15" fill="url(#grad1)" stroke="#1E40AF" stroke-width="1"/>
  
  <!-- Graduation cap -->
  <path d="M6 14 L26 14 L16 8 Z" fill="url(#grad2)" opacity="0.95"/>
  <rect x="8" y="14" width="16" height="2" fill="url(#grad2)" opacity="0.95"/>
  
  <!-- Tassel -->
  <path d="M16 16 L16 20 L14 18 L16 16 Z" fill="url(#grad2)" opacity="0.9"/>
  <circle cx="16" cy="20" r="1" fill="url(#grad2)" opacity="0.9"/>
  
  <!-- Compass/guidance element -->
  <path d="M16 6 L18 12 L16 18 L14 12 Z" fill="url(#grad2)" opacity="0.8"/>
  <circle cx="16" cy="16" r="1.5" fill="#1E40AF"/>
  
  <!-- Book/education element -->
  <rect x="20" y="18" width="4" height="6" rx="0.5" fill="url(#grad2)" opacity="0.7"/>
  <line x1="22" y1="20" x2="22" y2="22" stroke="#1E40AF" stroke-width="0.5" opacity="0.6"/>
  
  <!-- Small decorative elements -->
  <circle cx="8" cy="8" r="0.8" fill="url(#grad2)" opacity="0.6"/>
  <circle cx="24" cy="10" r="0.6" fill="url(#grad2)" opacity="0.6"/>
  <circle cx="26" cy="24" r="0.7" fill="url(#grad2)" opacity="0.6"/>
</svg> 